<svg aria-hidden="true" style="position: absolute; width: 0; height: 0; overflow: hidden;" version="1.1" xmlns="http://www.w3.org/2000/svg" xmlns:xlink="http://www.w3.org/1999/xlink">
<defs>
<symbol id="icon-world" viewBox="0 0 24 24">
<path d="M12 2c-4.971 0-9 4.029-9 9s4.029 9 9 9 9-4.029 9-9-4.029-9-9-9zM14 4c0 1-0.5 2-1.5 2s-1.5 1-1.5 2 0 3 0 3 1 0 1-3c0-0.553 0.447-1 1-1s1 0.447 1 1v3c-0.552 0-1 0.448-1 1s0.448 1 1 1c0.553 0 1-0.448 1-1h1v-2l1 1-1 1c0 3 0 3-2 4 0-1-1-1-3-1v-2l-2-2v-2c-1 0-1 1-1 1l-2.951-2.951c0.11-0.192 0.225-0.382 0.35-0.564l0.523-0.678c1.468-1.716 3.644-2.807 6.078-2.807 0.691 0 1.359 0.098 2 0.262v0.738z"></path>
</symbol>
<symbol id="icon-location_city" viewBox="0 0 24 24">
<path d="M18.984 15v-2.016h-1.969v2.016h1.969zM18.984 18.984v-1.969h-1.969v1.969h1.969zM12.984 6.984v-1.969h-1.969v1.969h1.969zM12.984 11.016v-2.016h-1.969v2.016h1.969zM12.984 15v-2.016h-1.969v2.016h1.969zM12.984 18.984v-1.969h-1.969v1.969h1.969zM6.984 11.016v-2.016h-1.969v2.016h1.969zM6.984 15v-2.016h-1.969v2.016h1.969zM6.984 18.984v-1.969h-1.969v1.969h1.969zM15 11.016h6v9.984h-18v-14.016h6v-1.969l3-3 3 3v6z"></path>
</symbol>
<symbol id="icon-user-circle" viewBox="0 0 28 28">
<path d="M23.797 20.922c-0.406-2.922-1.594-5.516-4.25-5.875-1.375 1.5-3.359 2.453-5.547 2.453s-4.172-0.953-5.547-2.453c-2.656 0.359-3.844 2.953-4.25 5.875 2.172 3.063 5.75 5.078 9.797 5.078s7.625-2.016 9.797-5.078zM20 10c0-3.313-2.688-6-6-6s-6 2.688-6 6 2.688 6 6 6 6-2.688 6-6zM28 14c0 7.703-6.25 14-14 14-7.734 0-14-6.281-14-14 0-7.734 6.266-14 14-14s14 6.266 14 14z"></path>
</symbol>
<symbol id="icon-envelope" viewBox="0 0 20 20">
<path d="M18 2c1.105 0 2 0.895 2 2v0 12c0 1.105-0.895 2-2 2v0h-16c-1.105 0-2-0.895-2-2v0-12c0-1.1 0.9-2 2-2h16zM13.63 11.1l6.37 4.9v-2l-5.12-3.9 5.12-4.1v-2l-10 8-10-8v2l5.12 4.1-5.12 3.9v2l6.37-4.9 3.63 2.9 3.63-2.9z"></path>
</symbol>
<symbol id="icon-home3" viewBox="0 0 32 32">
<path d="M32 19l-6-6v-9h-4v5l-6-6-16 16v1h4v10h10v-6h4v6h10v-10h4z"></path>
</symbol>
<symbol id="icon-phone" viewBox="0 0 32 32">
<path d="M22 20c-2 2-2 4-4 4s-4-2-6-4-4-4-4-6 2-2 4-4-4-8-6-8-6 6-6 6c0 4 4.109 12.109 8 16s12 8 16 8c0 0 6-4 6-6s-6-8-8-6z"></path>
</symbol>
<symbol id="icon-drawer2" viewBox="0 0 32 32">
<path d="M31.781 20.375l-8-10c-0.19-0.237-0.477-0.375-0.781-0.375h-14c-0.304 0-0.591 0.138-0.781 0.375l-8 10c-0.142 0.177-0.219 0.398-0.219 0.625v9c0 1.105 0.895 2 2 2h28c1.105 0 2-0.895 2-2v-9c0-0.227-0.077-0.447-0.219-0.625zM30 22h-7l-4 4h-6l-4-4h-7v-0.649l7.481-9.351h13.039l7.481 9.351v0.649z"></path>
</symbol>
<symbol id="icon-plus" viewBox="0 0 20 20">
<path d="M16 10c0 0.553-0.048 1-0.601 1h-4.399v4.399c0 0.552-0.447 0.601-1 0.601s-1-0.049-1-0.601v-4.399h-4.399c-0.552 0-0.601-0.447-0.601-1s0.049-1 0.601-1h4.399v-4.399c0-0.553 0.447-0.601 1-0.601s1 0.048 1 0.601v4.399h4.399c0.553 0 0.601 0.447 0.601 1z"></path>
</symbol>
<symbol id="icon-minus" viewBox="0 0 20 20">
<path d="M16 10c0 0.553-0.048 1-0.601 1h-10.798c-0.552 0-0.601-0.447-0.601-1s0.049-1 0.601-1h10.799c0.552 0 0.6 0.447 0.6 1z"></path>
</symbol>
</defs>
</svg>
